
<svg width="386" height="84" viewBox="0 0 386 84" fill="none" xmlns="http://www.w3.org/2000/svg">
<path d="M119.498 16.6564C118.416 16.5899 117.335 17.0556 116.659 17.8538C115.916 18.7186 115.578 19.783 115.578 20.9139V46.1259C115.713 50.2503 113.415 54.1086 109.698 56.1043C107.94 57.0356 105.98 57.5012 104.02 57.5012C100.168 57.5012 96.5857 55.439 94.6257 52.1794C93.5443 50.3168 93.0712 48.2546 93.0712 46.1259V20.9139C93.0712 19.783 92.5981 18.6521 91.787 17.8538C90.976 17.0556 89.9622 16.6564 88.8132 16.6564C87.5966 16.5899 86.4477 17.0556 85.569 17.8538C84.758 18.6521 84.2849 19.7165 84.2849 20.9139V46.1259C84.2173 49.7181 85.0959 53.2438 86.7856 56.3704C88.4077 59.2974 90.7732 61.6922 93.747 63.3552C96.856 65.0848 100.438 65.9496 103.953 65.8831C107.535 65.9496 111.049 65.0848 114.158 63.3552C117.065 61.6922 119.43 59.2974 121.052 56.3704C122.742 53.2438 123.62 49.7181 123.553 46.1259V20.9139C123.553 19.783 123.147 18.7186 122.404 17.8538C121.728 17.0556 120.647 16.5899 119.498 16.6564Z" fill="#262D34"/>
<path d="M158.292 55.9047C157.481 55.8382 156.67 56.0378 155.927 56.5034C155.386 56.9691 154.778 57.3682 154.17 57.7008C153.494 58.0334 152.75 58.233 152.074 58.2995C151.061 58.4326 150.047 58.4991 149.033 58.4991C147.073 58.5656 145.113 58.0334 143.423 56.9691C141.801 55.9712 140.45 54.5077 139.571 52.8447C138.625 50.9821 138.152 48.9199 138.219 46.8577C138.152 44.7955 138.625 42.7333 139.571 40.8041C140.45 39.0745 141.801 37.6776 143.423 36.6797C145.248 35.6154 147.411 35.0832 149.574 35.1497C150.317 35.1497 150.993 35.2827 151.737 35.4158C152.48 35.4823 153.223 35.7484 153.899 36.081C154.372 36.3471 154.846 36.6132 155.251 37.0123C155.657 37.3449 156.062 37.611 156.603 37.8106C157.211 38.0102 157.819 38.1432 158.495 38.1432C159.509 38.2097 160.455 37.7441 160.996 36.9458C161.537 36.1475 161.807 35.2827 161.807 34.3514C161.807 32.9545 161.199 31.6905 160.117 30.7592C158.766 29.6283 157.211 28.8301 155.454 28.4309C153.156 27.8322 150.79 27.5661 148.425 27.5661C145.045 27.4996 141.666 28.3644 138.76 30.0275C135.989 31.6905 133.691 34.0188 132.204 36.8793C130.582 40.0058 129.771 43.465 129.838 46.9242C129.771 50.3168 130.582 53.7095 132.069 56.7695C133.488 59.63 135.651 62.0248 138.354 63.6879C141.261 65.4174 144.64 66.2822 148.087 66.2157C150.452 66.2157 152.818 65.9496 155.048 65.3509C156.941 64.8853 158.698 64.1535 160.252 63.0226C161.604 62.0913 162.212 61.027 162.212 59.8295C162.212 58.8317 161.875 57.7673 161.199 57.0356C160.388 56.2373 159.374 55.8382 158.292 55.9047Z" fill="#262D34"/>
<path d="M197.155 27.4996C196.006 27.4996 194.925 27.8988 194.114 28.697C193.303 29.4953 192.897 30.6262 192.897 31.7571V31.8901C192.492 31.491 192.019 31.1584 191.545 30.7592C190.194 29.7614 188.707 29.0297 187.085 28.4309C185.26 27.8322 183.367 27.4996 181.475 27.4996C178.434 27.4996 175.392 28.3644 172.891 29.961C170.256 31.6906 168.093 34.0188 166.673 36.8128C165.119 39.9393 164.308 43.3985 164.375 46.8577C164.308 50.3169 165.119 53.776 166.673 56.8361C168.093 59.63 170.256 61.9583 172.959 63.6879C175.595 65.3509 178.704 66.2157 181.813 66.1492C183.503 66.1492 185.192 65.8831 186.814 65.2844C188.234 64.7522 189.585 64.0205 190.802 63.1557C191.545 62.6235 192.289 61.9583 192.965 61.2931C192.965 62.424 193.37 63.4883 194.181 64.2866C195.871 65.8831 198.574 65.8831 200.264 64.2866C201.075 63.4883 201.481 62.3574 201.481 61.2265V31.7571C201.548 30.6262 201.075 29.4953 200.264 28.697C199.453 27.8988 198.304 27.4996 197.155 27.4996ZM191.951 52.8447C191.14 54.5078 189.856 55.9713 188.301 57.0356C186.679 58.1 184.787 58.6322 182.827 58.5656C180.934 58.5656 179.042 58.0335 177.42 57.0356C175.865 55.9713 174.581 54.5743 173.77 52.8447C172.013 49.0529 172.013 44.729 173.77 40.9372C174.581 39.2741 175.865 37.8106 177.42 36.7463C179.042 35.6819 180.867 35.1497 182.827 35.2162C184.787 35.1497 186.679 35.6819 188.301 36.7463C189.856 37.8106 191.14 39.2076 191.951 40.9372C193.708 44.729 193.708 49.0529 191.951 52.8447Z" fill="#262D34"/>
<path d="M239.532 13.929C238.383 13.929 237.302 14.3282 236.491 15.1264C235.68 15.9247 235.274 17.0556 235.274 18.1865V31.8901C234.869 31.491 234.395 31.0918 233.922 30.7592C232.571 29.7614 231.084 29.0296 229.462 28.4309C227.637 27.8322 225.744 27.4996 223.852 27.4996C220.81 27.4996 217.769 28.3644 215.201 29.9609C212.565 31.6905 210.402 34.0188 208.983 36.8128C207.428 39.9393 206.617 43.3985 206.685 46.8577C206.617 50.3168 207.428 53.776 208.983 56.836C210.402 59.63 212.565 61.9583 215.268 63.6213C217.904 65.2844 221.013 66.1492 224.122 66.0827C225.812 66.0827 227.502 65.8166 229.124 65.2179C230.543 64.6857 231.895 63.9539 233.111 63.0891C233.855 62.557 234.598 61.8917 235.274 61.2265C235.274 62.3574 235.68 63.4217 236.491 64.22C238.18 65.8166 240.884 65.8166 242.573 64.22C243.384 63.4217 243.79 62.2909 243.79 61.16V18.1865C243.858 17.0556 243.384 15.9247 242.573 15.1264C241.762 14.3282 240.681 13.8625 239.532 13.929ZM234.328 52.8447C233.517 54.5077 232.233 55.9712 230.678 57.0356C229.056 58.1 227.164 58.6321 225.204 58.5656C223.311 58.6321 221.419 58.0334 219.797 57.0356C218.242 55.9712 216.958 54.5743 216.147 52.8447C214.39 49.0529 214.39 44.7289 216.147 40.9372C216.958 39.2741 218.242 37.8106 219.797 36.7462C221.419 35.6819 223.244 35.1497 225.204 35.2162C227.164 35.1497 229.056 35.6819 230.678 36.7462C232.233 37.8106 233.517 39.2076 234.328 40.9372C236.085 44.7289 236.085 49.0529 234.328 52.8447Z" fill="#262D34"/>
<path d="M279.814 33.021C278.192 31.3579 276.232 29.961 274.137 29.0297C271.974 28.0318 269.676 27.5662 267.31 27.5662C264.201 27.5662 261.16 28.3644 258.456 29.8944C255.618 31.491 253.32 33.8858 251.698 36.6797C249.94 39.6067 249.129 43.1989 249.129 47.3899C249.062 50.716 249.873 54.0421 251.495 56.9691C253.049 59.8296 255.415 62.1579 258.321 63.6879C261.498 65.4175 265.147 66.2823 268.797 66.1492C271.163 66.1492 273.461 65.7501 275.691 65.0183C277.583 64.4196 279.341 63.5548 280.828 62.3574C282.179 61.3596 282.788 60.2287 282.788 58.9648C282.788 57.0356 281.166 55.4391 279.206 55.5056C278.394 55.5056 277.516 55.7717 276.772 56.1043C276.232 56.3704 275.691 56.703 275.083 57.1021C274.272 57.5678 273.461 57.9004 272.582 58.1C271.23 58.4326 269.811 58.5656 268.392 58.4991C263.12 58.4991 258.592 54.8404 257.645 49.7182H280.895C281.977 49.7182 283.058 49.3855 283.869 48.6538C284.68 47.9886 285.221 46.9907 285.221 45.9264C285.221 43.465 284.748 41.0702 283.734 38.8085C282.855 36.7463 281.503 34.6841 279.814 33.021ZM260.146 37.6111C261.025 36.7463 262.106 36.081 263.323 35.7484C264.607 35.3493 265.959 35.1497 267.31 35.1497C268.73 35.1497 270.149 35.4823 271.433 36.081C272.717 36.6797 273.799 37.5445 274.677 38.6089C275.556 39.6733 276.029 40.9372 276.164 42.2676V42.7333H257.578C257.713 42.2011 257.848 41.6689 257.983 41.1368C258.389 39.8728 259.132 38.6754 260.146 37.6111Z" fill="#262D34"/>
<path d="M341.994 29.6949C340.236 28.2314 337.668 27.5662 334.221 27.5662C332.261 27.5662 330.301 27.9653 328.611 28.8301C326.989 29.6284 325.57 30.6927 324.353 31.9566C323.407 32.9545 322.529 34.0188 321.853 35.2162C321.244 33.3536 320.231 31.624 318.811 30.2271C316.986 28.431 314.215 27.5662 310.431 27.5662C308.944 27.5662 307.524 27.7657 306.105 28.2979C304.821 28.7636 303.604 29.4288 302.523 30.2271C301.509 30.9588 300.563 31.8236 299.752 32.7549C299.481 33.0875 299.279 33.3536 299.008 33.6862V32.4888C299.008 31.3579 298.603 30.2936 297.792 29.4288C296.102 27.8323 293.399 27.8323 291.709 29.4288C290.898 30.2271 290.492 31.3579 290.492 32.4888V61.2931C290.492 62.424 290.898 63.4883 291.709 64.3531C293.399 65.9496 296.102 65.9496 297.792 64.3531C298.603 63.5548 299.008 62.424 299.008 61.2931V43.465C299.008 42.0015 299.346 40.6046 299.955 39.3406C300.63 38.0767 301.577 37.0789 302.861 36.3471C304.28 35.5489 305.835 35.1497 307.457 35.2162C309.282 35.2162 310.701 35.6154 311.715 36.3471C312.729 37.0789 313.404 38.1432 313.742 39.3406C314.148 40.6711 314.351 42.0681 314.351 43.465V61.2931C314.351 62.424 314.756 63.4883 315.567 64.3531C317.257 65.9496 319.96 65.9496 321.65 64.3531C322.461 63.5548 322.867 62.424 322.867 61.2931V43.465C322.867 42.0015 323.204 40.6046 323.813 39.3406C324.489 38.0767 325.435 37.0789 326.651 36.3471C328.071 35.5489 329.625 35.1497 331.247 35.2162C333.072 35.2162 334.491 35.6154 335.505 36.3471C336.519 37.0789 337.195 38.1432 337.533 39.3406C337.938 40.6711 338.141 42.0681 338.141 43.465V61.2931C338.141 62.424 338.547 63.4883 339.358 64.3531C341.047 65.9496 343.751 65.9496 345.441 64.3531C346.252 63.5548 346.657 62.424 346.657 61.2931V43.465C346.657 40.8041 346.319 38.0767 345.643 35.4823C345.103 33.2206 343.818 31.2249 341.994 29.6949Z" fill="#262D34"/>
<path d="M384.844 29.4288C383.154 27.8322 380.451 27.8322 378.761 29.4288C377.95 30.2271 377.544 31.3579 377.544 32.4888V50.3169C377.612 51.8469 377.274 53.4434 376.598 54.8404C376.058 56.0378 375.111 56.9691 373.962 57.6343C372.678 58.2996 371.259 58.6322 369.772 58.5656C367.339 58.5656 365.514 57.9669 364.162 56.703C362.811 55.4391 362.135 53.3769 362.135 50.3169V32.4888C362.135 31.3579 361.729 30.2936 360.918 29.4288C359.228 27.8322 356.525 27.8322 354.835 29.4288C354.024 30.2271 353.619 31.3579 353.619 32.4888V52.8447C353.551 55.2395 354.092 57.6343 355.173 59.763C356.119 61.6922 357.674 63.3553 359.499 64.4861C361.459 65.6835 363.757 66.2157 366.055 66.1492C367.947 66.1492 369.907 65.8831 371.732 65.3509C373.286 64.8853 374.773 64.087 375.99 63.0892C376.531 62.6235 377.071 62.0913 377.544 61.5592V62.2909C377.544 64.6857 377.207 66.5483 376.463 67.8788C375.787 69.2092 374.638 70.2736 373.219 70.8058C371.462 71.4045 369.637 71.7371 367.812 71.6706C366.393 71.6706 364.906 71.471 363.554 70.9388C362.337 70.4732 361.324 70.074 360.58 69.8745C359.634 69.4753 358.553 69.5419 357.606 70.074C356.593 70.6727 355.849 71.6706 355.579 72.8015C355.241 73.7328 355.376 74.7971 355.917 75.7284C356.66 76.7928 357.674 77.5911 358.823 77.9902C360.175 78.5224 361.594 78.855 363.013 79.0546C364.635 79.2541 366.19 79.3872 367.812 79.3872C370.989 79.4537 374.098 78.855 377.004 77.6576C379.707 76.5267 382.005 74.6641 383.56 72.2028C385.182 69.6749 385.993 66.2823 385.993 61.9583V32.4888C386.06 31.3579 385.655 30.2936 384.844 29.4288Z" fill="#262D34"/>
<path d="M6.56007 15.3925C9.93941 15.3925 12.6429 18.1199 12.6429 21.4461V52.6451C12.6429 53.4434 12.7105 54.2417 12.7781 55.0399C13.1836 58.8982 14.3326 62.69 16.1574 66.1492C18.0498 69.8079 20.6181 73.001 23.7947 75.6619C26.8361 78.1898 30.4182 80.1189 34.2031 81.3163C35.8928 81.8485 37.65 82.2476 39.3397 82.4472C22.7133 86.7046 5.68144 76.7263 1.35588 60.2952C0.747602 57.7673 0.409668 55.2395 0.409668 52.6451V21.3795C0.409668 18.0534 3.18073 15.3925 6.56007 15.3925Z" fill="#0ABB87"/>
<path d="M26.7009 72.8014C25.9575 71.9367 25.2816 70.9388 24.6733 70.0075C27.2416 71.0053 30.0127 71.471 32.7838 71.2714C42.8542 70.6727 50.5591 62.0913 50.5591 52.1795V6.87765C50.4915 3.55153 53.1274 0.824104 56.5068 0.558014C59.8861 0.491491 62.7247 3.08587 62.7923 6.41199C62.7923 6.47852 62.7923 6.54504 62.7923 6.61156V52.6451C62.7923 58.8317 60.8999 64.9518 57.3178 70.0075C51.0322 78.988 38.4611 81.2498 29.3368 75.0632C28.9313 74.7971 28.4582 74.4645 28.0527 74.1319C27.6472 73.7328 27.1741 73.2671 26.7009 72.8014Z" fill="#0ABB87"/>
<path d="M31.6347 36.0145C37.3796 36.0145 42.0431 40.6046 42.0431 46.259C42.0431 51.9134 37.3796 56.5035 31.6347 56.5035C25.8898 56.5035 21.2263 51.9134 21.2263 46.259C21.2263 40.6046 25.8898 36.0145 31.6347 36.0145Z" fill="#0ABB87"/>
</svg>
